# xmcd
#
# Track frame offsets:
#	150
#	11502
#	24065
#	35017
#	45747
#	54455
#	64557
#	75332
#	86845
#	97747
#	108317
#	120330
#	129847
#	140610
#
# Disc length: 2018 seconds
#
# Revision: 0
# Processed by: cddbd v1.4PL0 Copyright (c) Steve Scherf et al.
#
# Submitted via: MusicManager v6.0.0.0
#
DISCID=9e07e00e
DTITLE=George Jones - Hank, Bob, and Me
DYEAR=1900
DGENRE=country
TTITLE0=Your Cheatin' Heart
TTITLE1=San Antonio Rose
TTITLE2=A House Without Love
TTITLE3=Take These Chains from My Heart
TTITLE4=Take Me Back to Tulsa
TTITLE5=I Heard You Crying in Your Sleep
TTITLE6=Lonesome Whistle
TTITLE7=I Just Don't Like This Kind of Livin'
TTITLE8=Mansion on the Hill
TTITLE9=Bubbles in My Beer
TTITLE10=Faded Love
TTITLE11=Trouble in Mind
TTITLE12=Silver Dew on the Bluegrass Tonight
TTITLE13=Steel Guitar Rag
EXTD=
EXTT0=
EXTT1=
EXTT2=
EXTT3=
EXTT4=
EXTT5=
EXTT6=
EXTT7=
EXTT8=
EXTT9=
EXTT10=
EXTT11=
EXTT12=
EXTT13=
PLAYORDER=
